<svg version="1.1" id="Layer_1" xmlns="http://www.w3.org/2000/svg" xmlns:xlink="http://www.w3.org/1999/xlink" x="0px" y="0px"
	 width="100%" viewBox="0 0 576 576" enable-background="new 0 0 576 576" xml:space="preserve">
<path fill="#000000" opacity="1.000000" stroke="none" 
	d="
M73.765961,400.804626 
	C73.253693,380.283813 75.408020,360.413727 77.598000,340.545471 
	C77.689125,339.718719 77.703606,338.882660 77.734467,338.050232 
	C77.997711,330.949677 77.833878,330.725220 71.040512,332.252167 
	C65.522003,333.492554 60.042740,334.929504 54.594551,336.452698 
	C51.303852,337.372711 47.972725,338.005646 46.615517,334.031281 
	C45.223896,329.956146 48.557968,328.411743 51.581039,327.324677 
	C58.811737,324.724548 66.344254,323.229736 73.881287,321.863403 
	C77.230858,321.256195 78.806122,319.677612 78.885239,316.229431 
	C78.972061,312.445557 80.318909,308.746246 79.950447,304.687134 
	C76.411522,303.267303 72.738853,302.983368 69.127106,303.147705 
	C62.092953,303.467743 55.224689,302.101837 48.279919,301.544800 
	C46.171650,301.375732 44.227951,300.698395 43.841084,298.288086 
	C43.446198,295.827789 44.789719,294.134369 46.873806,293.053528 
	C48.712906,292.099701 50.686695,292.215881 52.726826,292.365845 
	C60.863651,292.963867 69.017487,293.332184 77.153084,293.944305 
	C80.694130,294.210693 82.531761,293.421265 83.082222,289.328094 
	C84.764206,276.821259 84.955528,276.863739 72.906891,272.952942 
	C66.088997,270.739929 59.219906,268.726898 52.178181,267.349670 
	C48.890388,266.706665 45.419590,265.678223 46.266960,261.533264 
	C47.075596,257.577759 50.745560,257.528870 54.006077,258.055664 
	C62.585064,259.441833 70.876060,261.941010 79.050224,264.851410 
	C80.896736,265.508850 82.651863,266.588806 85.210548,266.231598 
	C87.250580,260.201324 87.639313,253.705933 89.016953,247.432907 
	C95.265587,218.980118 100.662163,190.352600 107.133957,161.938843 
	C114.724121,128.614899 123.766479,95.746162 134.762085,63.401085 
	C136.207703,59.148575 137.577454,54.863140 139.218475,50.685715 
	C142.365967,42.673298 147.496460,41.623539 153.624252,47.673378 
	C178.518097,72.250488 196.174850,101.308388 207.258530,134.427505 
	C208.420731,137.900284 209.804688,141.313309 210.726379,144.847763 
	C211.554626,148.023834 213.332779,149.162308 216.491608,148.932419 
	C227.946915,148.098724 239.408920,147.357010 250.868942,146.588593 
	C259.006592,146.042953 267.138123,145.218567 275.284515,145.023651 
	C305.593933,144.298447 335.879761,142.414124 366.211426,142.935272 
	C370.911102,143.016006 373.545044,141.421814 375.360962,137.124298 
	C386.471741,110.829254 400.149323,85.844841 414.637543,61.295799 
	C419.208862,53.550087 424.096893,45.988785 428.949585,38.413280 
	C430.288757,36.322685 431.849609,34.309864 433.611633,32.567711 
	C437.274475,28.946241 441.109253,29.620436 443.988953,33.876884 
	C460.041779,57.604546 468.155945,84.443611 475.264465,111.802696 
	C483.135712,142.097290 485.605621,173.144516 489.237793,204.038956 
	C491.180786,220.565643 492.670959,237.145264 494.458344,253.690964 
	C494.664642,255.600555 494.639526,257.703705 496.387787,259.628876 
	C502.327881,258.549927 507.791321,255.665939 513.505676,253.546127 
	C514.910278,253.025085 516.257446,252.330566 517.685791,251.895981 
	C520.560425,251.021301 523.118042,251.539581 524.411865,254.487534 
	C525.738708,257.510651 523.695129,259.395294 521.343384,260.407379 
	C514.768616,263.236755 508.134796,265.966217 501.383820,268.334747 
	C497.421112,269.725006 495.989868,271.553375 496.725098,276.015503 
	C498.746368,288.282501 498.513702,288.295135 511.140594,286.563538 
	C515.756958,285.930481 520.385376,285.352936 525.024658,284.929779 
	C528.280823,284.632782 531.370361,285.424683 531.703735,289.253784 
	C532.017151,292.854828 529.172974,294.000427 526.147827,294.382721 
	C518.713562,295.322327 511.287231,296.432068 503.821442,296.972656 
	C499.617462,297.277069 498.697449,299.194611 499.379395,302.789551 
	C499.534637,303.607849 499.673035,304.430206 499.789948,305.254822 
	C501.299957,315.904633 501.299896,315.889465 512.252014,316.774048 
	C516.400146,317.109039 520.546265,317.485596 524.683777,317.931152 
	C528.123230,318.301514 531.997620,319.010590 531.687744,323.350311 
	C531.376648,327.708801 527.571716,327.900177 524.021912,327.576691 
	C517.075989,326.943665 510.128418,326.328735 503.339264,325.720428 
	C501.376892,327.870575 502.134521,330.138031 502.337738,332.167969 
	C505.721619,365.969208 507.674683,399.881317 510.353180,433.736572 
	C512.493286,460.786011 515.229614,487.788452 517.737061,514.808472 
	C518.076111,518.462708 517.562256,522.052185 513.441833,522.564392 
	C508.937317,523.124390 508.272522,519.225159 507.965515,515.806458 
	C504.644958,478.830414 501.147400,441.871887 498.648041,404.823273 
	C496.989899,380.243988 494.686584,355.708130 492.651245,331.154510 
	C492.123383,324.786652 491.612732,324.451141 485.011139,324.133545 
	C480.358185,323.909698 475.702026,323.534058 471.079865,322.962891 
	C467.899353,322.569824 464.941833,321.177612 465.404846,317.350342 
	C465.845795,313.705109 468.974365,313.374451 471.954437,313.553772 
	C476.774200,313.843750 481.596100,314.160767 486.399048,314.645233 
	C489.662140,314.974396 491.127930,313.887238 490.645447,310.473907 
	C490.135803,306.868256 489.778412,303.241119 489.314575,299.282623 
	C483.165253,298.479462 477.325104,299.841492 471.493073,300.724762 
	C468.181274,301.226288 465.197083,301.261810 464.357422,297.418396 
	C463.456055,293.292755 466.441315,291.739807 469.797974,291.159515 
	C473.728912,290.479919 477.714203,289.949615 481.694946,289.765411 
	C486.549500,289.540741 488.661804,287.504730 487.802094,282.533173 
	C487.381317,280.099792 487.481445,277.572693 486.145966,275.064178 
	C479.788147,276.559052 473.946869,279.390564 467.932343,281.723877 
	C466.224274,282.386566 464.568512,283.193665 462.838409,283.787872 
	C460.290222,284.663025 457.692902,284.778564 456.306274,281.999237 
	C454.822754,279.025757 456.297485,276.704346 459.000122,275.443298 
	C463.824127,273.192444 468.722351,271.072021 473.695984,269.176270 
	C486.223785,264.401123 486.159668,264.473358 484.686646,251.369156 
	C481.376038,221.917206 478.497528,192.412476 474.823151,163.006683 
	C470.178253,125.833900 462.137482,89.489883 445.592285,55.520123 
	C443.995422,52.241528 441.886414,49.207821 439.939148,46.108158 
	C439.531250,45.458828 438.788208,45.020039 438.199341,44.484013 
	C435.153442,45.763222 433.884705,48.380722 432.413696,50.733192 
	C413.309631,81.284805 395.920990,112.758263 381.888519,145.990463 
	C379.823029,150.882080 376.877716,152.443130 371.604095,152.552399 
	C328.477631,153.445984 285.312286,153.339935 242.276260,156.948532 
	C233.150635,157.713745 224.012238,158.334793 214.874756,158.948257 
	C207.470764,159.445328 204.686676,157.419571 201.969727,148.667175 
	C196.967239,132.552094 190.946365,116.872032 182.860336,102.041252 
	C174.444870,86.606262 164.384491,72.342789 152.114685,59.698177 
	C151.094910,58.647247 149.943192,57.724323 148.325378,56.266785 
	C144.781265,62.257317 143.008194,68.482948 140.993729,74.540543 
	C128.734970,111.403488 119.327866,149.033691 111.253159,187.002502 
	C105.682243,213.198013 100.408150,239.453217 95.930771,265.868317 
	C95.251961,269.873108 96.352905,271.238037 99.706306,272.385712 
	C103.798492,273.786224 107.792694,275.497437 111.757431,277.237915 
	C114.688675,278.524719 117.260521,280.490021 115.695961,284.122711 
	C114.119560,287.782867 110.993774,287.112701 107.996384,285.933777 
	C104.585602,284.592285 101.160408,283.286041 97.768242,281.899048 
	C95.207703,280.852051 93.928314,281.971008 93.533379,284.384277 
	C93.104401,287.005554 92.838181,289.654449 92.538963,292.295654 
	C92.272888,294.644379 94.000580,295.138733 95.689926,295.278107 
	C99.171112,295.565308 102.670120,295.635773 106.161674,295.798157 
	C109.635925,295.959717 112.884460,297.130035 112.851372,300.999512 
	C112.815750,305.166748 109.105255,305.592285 105.846817,305.646057 
	C103.021729,305.692688 100.154945,305.614014 97.370247,305.181152 
	C92.334633,304.398346 90.264420,306.655243 90.251526,311.428833 
	C90.246689,313.219727 89.608330,315.073914 90.863945,316.910400 
	C94.581284,317.209106 97.868912,315.293182 101.389091,314.497070 
	C103.659439,313.983582 105.854942,313.127106 108.132301,312.659637 
	C111.337387,312.001770 113.935501,313.103088 114.699905,316.414642 
	C115.415237,319.513580 113.088669,320.884460 110.550972,321.685089 
	C104.517853,323.588440 98.497902,325.552765 92.396011,327.210419 
	C89.587830,327.973358 88.206062,329.259735 87.951057,332.270477 
	C86.630898,347.856476 84.293594,363.362000 84.255264,379.048004 
	C84.207184,398.724426 81.858536,418.269043 80.926987,437.897034 
	C79.836876,460.865631 78.934929,483.821564 79.969330,506.817169 
	C80.246300,512.974487 80.211021,519.146545 80.276993,525.312256 
	C80.313889,528.760620 79.532707,532.039612 75.356590,531.997681 
	C71.475838,531.958679 70.813980,528.753967 70.651306,525.547241 
	C69.045921,493.901123 69.409210,462.274445 71.605019,430.667328 
	C72.285629,420.870453 73.032135,411.078156 73.765961,400.804626 
z"/>
<path fill="#000000" opacity="1.000000" stroke="none" 
	d="
M304.051575,334.010498 
	C301.404327,331.754944 299.038879,329.717590 296.627655,327.640839 
	C293.961853,329.796478 292.850739,332.654907 291.219299,335.114471 
	C287.003967,341.469482 281.918976,346.905334 274.964264,350.236420 
	C271.854034,351.726135 268.255737,352.678955 266.362762,348.560883 
	C264.615265,344.759216 267.704742,343.229095 270.486755,341.890259 
	C275.276825,339.584930 278.899628,335.954803 281.983276,331.751129 
	C284.746429,327.984406 287.042847,323.932678 289.123474,319.739746 
	C290.626373,316.711121 291.319794,312.576508 295.644012,312.290833 
	C300.117676,311.995300 300.925507,316.146027 302.699036,319.045258 
	C305.286407,323.274841 309.085236,326.262695 313.217377,328.823730 
	C315.903381,330.488525 318.712128,331.961426 321.506836,333.442993 
	C324.327271,334.938110 327.082458,336.791779 325.427002,340.353210 
	C323.643188,344.190948 320.295563,343.199677 317.240692,341.795654 
	C312.689026,339.703796 308.320099,337.289429 304.051575,334.010498 
z"/>
<path fill="#000000" opacity="1.000000" stroke="none" 
	d="
M248.265198,255.683136 
	C245.791290,263.321136 241.922867,266.889374 237.173248,266.292053 
	C232.486755,265.702667 229.016724,260.236511 229.255997,252.939789 
	C229.406586,248.347137 229.268204,243.589340 231.613861,239.341934 
	C233.669342,235.619965 236.621964,232.849701 241.086716,233.345367 
	C245.309784,233.814209 246.790848,237.313431 247.911850,240.992981 
	C249.360229,245.747101 248.850876,250.491501 248.265198,255.683136 
z"/>
<path fill="#000000" opacity="1.000000" stroke="none" 
	d="
M336.905487,248.800018 
	C336.825348,244.323792 337.490051,240.399414 339.461060,236.857407 
	C341.276245,233.595413 344.189240,231.685181 347.996155,231.795944 
	C351.896179,231.909409 353.872894,234.694672 354.971741,237.965469 
	C357.201355,244.602264 357.364014,251.291183 354.595245,257.866852 
	C353.213348,261.148834 350.992126,263.458649 347.190155,263.573669 
	C343.366119,263.689301 341.128448,261.359802 339.445496,258.282074 
	C337.903748,255.462601 337.370392,252.361206 336.905487,248.800018 
z"/>
</svg>